<svg width="22" height="22" viewBox="0 0 22 22" fill="none" xmlns="http://www.w3.org/2000/svg">
<rect width="22" height="22" transform="translate(22 22) rotate(180)" fill="#B2DE3E"/>
<path d="M12.081 14.4316C11.8364 14.6032 11.5 14.4282 11.5 14.1295C11.5 14.011 11.5569 13.8997 11.653 13.8303L12.5983 13.1477C14.0627 12.0904 14.0627 9.90969 12.5983 8.85231L11.653 8.16976C11.5569 8.10038 11.5 7.98908 11.5 7.87056C11.5 7.57182 11.8364 7.39688 12.081 7.56843L16.0321 10.34C16.2472 10.4909 16.3753 10.7372 16.3753 11C16.3753 11.2628 16.2472 11.5091 16.0321 11.66L12.081 14.4316Z" fill="black"/>
<path d="M6.20574 14.4316C5.96118 14.6032 5.62476 14.4282 5.62476 14.1295C5.62476 14.011 5.68168 13.8997 5.77776 13.8303L6.72305 13.1477C8.18744 12.0904 8.18744 9.90969 6.72305 8.85231L5.77776 8.16976C5.68168 8.10038 5.62476 7.98908 5.62476 7.87056C5.62476 7.57182 5.96117 7.39688 6.20574 7.56843L10.1568 10.34C10.3719 10.4909 10.5 10.7372 10.5 11C10.5 11.2628 10.3719 11.5091 10.1568 11.66L6.20574 14.4316Z" fill="black"/>
</svg>
